<svg width="0" height="0" class="hidden">
  <symbol xmlns="http://www.w3.org/2000/svg" viewBox="0 0 17 24" id="download">
    <path
      d="M16.2088 20.8072H0.00028385V23.5H16.2088V20.8072ZM15.9402 10.0381C15.5246 9.6223 14.8504 9.6223 14.4351 10.0381L9.15553 15.3179V1.56487C9.15553 0.976449 8.67827 0.5 8.09066 0.5C7.50256 0.5 7.02611 0.976611 7.02611 1.56503V15.3181L1.81764 10.1098C1.40188 9.6937 0.727939 9.6937 0.312183 10.1098C-0.104061 10.5255 -0.104061 11.1996 0.312183 11.6156L7.33785 18.6411C7.36219 18.6661 7.38881 18.6896 7.41591 18.7121C7.42824 18.7222 7.44106 18.7305 7.45388 18.7407C7.46913 18.7513 7.48406 18.7638 7.49916 18.7741C7.5149 18.7844 7.53031 18.7926 7.54557 18.8024C7.55985 18.8111 7.5738 18.8194 7.58857 18.8272C7.6048 18.8363 7.62086 18.8434 7.63693 18.8511C7.65267 18.8584 7.66776 18.8658 7.68285 18.8725C7.69876 18.879 7.71466 18.8842 7.73073 18.8895C7.7476 18.8957 7.76432 18.9022 7.78136 18.9072C7.79775 18.9121 7.81333 18.9156 7.82955 18.9197C7.84708 18.9234 7.86428 18.9291 7.88213 18.9324C7.90079 18.9358 7.91962 18.9377 7.93828 18.9411C7.95402 18.9436 7.96944 18.9463 7.98518 18.9479C8.05496 18.9548 8.12555 18.9548 8.19533 18.9479C8.21156 18.9463 8.22632 18.9436 8.24223 18.9411C8.26073 18.9377 8.28004 18.9364 8.29805 18.9324C8.31574 18.929 8.33326 18.9234 8.35063 18.9197C8.36718 18.9156 8.38292 18.9121 8.39915 18.9072C8.41619 18.9022 8.43274 18.8957 8.44978 18.8895C8.46633 18.8846 8.48142 18.8795 8.49765 18.8725C8.51323 18.8658 8.52865 18.8584 8.54358 18.8511C8.55981 18.8433 8.57587 18.8361 8.59177 18.8272C8.60654 18.8194 8.6205 18.8103 8.63461 18.8024C8.65052 18.7926 8.66594 18.7845 8.68119 18.7741C8.69677 18.7638 8.71186 18.7513 8.72679 18.7407C8.73912 18.7306 8.7521 18.7224 8.7646 18.7121C8.80501 18.679 8.84233 18.6412 8.87722 18.6034C8.88955 18.5925 8.90221 18.5822 8.91438 18.5705L15.9401 11.5445C16.356 11.1278 16.356 10.4537 15.9402 10.0381Z"
    ></path>
  </symbol>
  <symbol xmlns="http://www.w3.org/2000/svg" viewBox="0 0 33 33" id="facebook-logo">
    <path
      d="M24.7175 0.0068662L20.4382 0C15.6306 0 12.5236 3.18763 12.5236 8.12134V11.8658H8.22098C7.84918 11.8658 7.5481 12.1673 7.5481 12.5391V17.9644C7.5481 18.3362 7.84952 18.6373 8.22098 18.6373H12.5236V32.3271C12.5236 32.6989 12.8247 33 13.1965 33H18.8103C19.1821 33 19.4832 32.6986 19.4832 32.3271V18.6373H24.514C24.8858 18.6373 25.1869 18.3362 25.1869 17.9644L25.1889 12.5391C25.1889 12.3605 25.1178 12.1896 24.9919 12.0632C24.8659 11.9369 24.6942 11.8658 24.5157 11.8658H19.4832V8.69158C19.4832 7.16591 19.8467 6.3914 21.8341 6.3914L24.7169 6.39037C25.0883 6.39037 25.3894 6.08895 25.3894 5.71749V0.679754C25.3894 0.308636 25.0887 0.00755282 24.7175 0.0068662Z"
      fill="#1877F2"></path>
  </symbol>
  <symbol xmlns="http://www.w3.org/2000/svg" viewBox="0 0 24 39" id="gerb">
    <path
      d="M6.18164 29.4862C6.18164 29.5296 6.18164 29.5731 6.18164 29.6166H8.22766C8.22766 29.5731 8.22766 29.4862 8.22766 29.4427C8.22766 29.3992 8.22766 29.3557 8.22766 29.3122C8.22766 28.6164 8.40179 27.964 8.40179 27.7031C8.92418 23.7455 11.5361 22.0928 11.5797 22.0494C11.7538 22.2233 14.2787 24.2673 14.7575 27.7466C14.7575 28.0075 14.9316 28.6598 14.9316 29.3557C14.9316 29.3992 14.9316 29.4427 14.9316 29.4862C14.9316 29.5296 14.9316 29.5731 14.9316 29.5731H16.9777C16.9777 29.5296 16.9777 29.4862 16.9777 29.4427C16.9777 25.9635 15.4976 23.528 14.1045 21.9624H14.1481C12.9292 19.44 12.7115 16.5696 12.8421 13.7862C12.9727 11.0899 13.0598 7.61066 13.1468 4.91428C13.1903 3.43562 12.8421 2.08743 11.8408 0.913195C11.7973 0.826215 11.5797 0.652255 11.5361 0.608765C11.5361 0.608765 11.2749 0.826215 11.2314 0.913195C10.2301 2.08743 9.88189 3.47911 9.92542 4.91428C10.0125 7.61066 10.0996 11.0899 10.2301 13.7862C10.3607 16.5696 10.2301 19.44 8.96771 21.9624C7.61821 23.528 6.18164 25.9635 6.18164 29.4862Z"
    ></path>
    <path
      d="M23.2027 4.479C23.1592 4.479 23.1157 4.479 23.0721 4.479C22.9851 4.52249 22.898 4.56598 22.8109 4.60947C21.592 5.3488 20.5473 6.2621 19.6766 7.39284C17.8918 9.61083 17.0647 12.1767 16.8035 15.0036C16.6729 16.4823 16.4552 18.0044 16.2811 19.4831C16.194 20.2224 16.107 21.0052 16.0634 21.7445C16.8035 21.6141 17.3694 21.875 17.8918 22.3534C18.5883 22.9623 18.6754 23.9625 18.1094 24.6584C17.8483 24.9628 17.4565 25.2238 17.0647 25.4412C17.0647 25.4412 17.0211 25.4412 17.0211 25.4847C17.2388 26.0501 17.4129 26.7024 17.5 27.3983C17.5435 27.3983 17.5871 27.3548 17.6306 27.3548C19.1978 26.7894 20.1555 25.7456 20.4167 24.0495C20.6343 22.6144 19.8507 21.1357 18.5012 20.3529C18.2836 20.2224 18.1965 20.0919 18.24 19.831C18.4577 18.1784 18.6754 16.5257 18.806 14.8296C18.9366 13.3075 19.3719 11.8723 20.0684 10.4371C20.3731 9.78479 21.2873 8.48009 21.2873 8.48009C21.2873 8.48009 21.2873 23.0927 21.2873 30.3556H13.3644V32.0952H14.6704C14.2786 34.0087 13.3209 35.27 12.5808 36.0093V30.0511C12.7114 29.5728 13.0597 28.9639 14.1045 28.6595C14.148 28.6595 14.1915 28.616 14.2786 28.616C14.2351 28.355 14.1915 28.0941 14.1915 27.9636C14.148 27.5722 14.0609 27.1808 13.9739 26.7894C13.7997 26.8329 13.6256 26.8764 13.5386 26.9199C12.8856 27.1808 11.8408 28.0071 11.6231 28.2246C11.4055 28.0506 10.3607 27.1808 9.70771 26.9199C9.62064 26.8764 9.44651 26.8329 9.27238 26.7894C9.18532 27.1373 9.09826 27.5287 9.05472 27.9636C9.05472 28.0941 9.01119 28.3115 8.96766 28.616C9.01119 28.616 9.05472 28.6595 9.14179 28.6595C10.1866 28.9639 10.5348 29.5728 10.6654 30.0511V36.0528C9.92537 35.3134 8.96766 34.0522 8.57587 32.1822H9.92537V30.4426H1.91542V8.52358C1.91542 8.52358 2.8296 9.82828 3.13433 10.4806C3.78731 11.8723 4.22264 13.3075 4.39676 14.8731C4.52736 16.5257 4.74502 18.1784 4.96268 19.8745C5.00622 20.1354 4.91915 20.2659 4.70149 20.3964C3.35199 21.1792 2.56841 22.6578 2.78607 24.093C3.00373 25.7456 4.00497 26.8329 5.57214 27.3983C5.61567 27.3983 5.6592 27.4417 5.70273 27.4417C5.83333 26.7459 5.96393 26.137 6.18159 25.5282C6.18159 25.5282 6.18159 25.5282 6.13806 25.5282C5.74627 25.3107 5.35448 25.0933 5.09328 24.7454C4.52736 24.0495 4.61443 23.0493 5.31094 22.4404C5.7898 22.0055 6.39925 21.7011 7.1393 21.8315C7.05224 21.0487 7.0087 20.3094 6.92164 19.57C6.74751 18.0914 6.52985 16.5692 6.39925 15.0906C6.18159 12.2637 5.31094 9.69781 3.52612 7.47982C2.65547 6.34908 1.6107 5.43578 0.391791 4.69645C0.304726 4.65296 0.217662 4.60947 0.130597 4.56598C0.0870647 4.56598 0.0435323 4.56598 0 4.56598V32.2256H6.44278C7.35696 36.7921 11.5796 38.9231 11.5796 38.9231C11.5796 38.9231 15.8022 36.9226 16.8035 32.1822H23.2027V4.479Z"
    ></path>
  </symbol>
  <symbol xmlns="http://www.w3.org/2000/svg" viewBox="0 0 13 16" id="play">
    <path
      d="M12.5 7.13397C13.1667 7.51888 13.1667 8.48112 12.5 8.86602L2 14.9282C1.33333 15.3131 0.499999 14.832 0.499999 14.0622L0.5 1.93782C0.5 1.16802 1.33333 0.686896 2 1.0718L12.5 7.13397Z"
    ></path>
  </symbol>
  <symbol xmlns="http://www.w3.org/2000/svg" viewBox="0 0 20 17" id="telegram">
    <path
      d="M19.943 1.54763L16.9249 15.9738C16.6972 16.992 16.1034 17.2454 15.2596 16.7657L10.6609 13.3311L8.44199 15.4941C8.19643 15.743 7.99105 15.9512 7.5178 15.9512L7.84819 11.2043L16.3713 3.39841C16.7418 3.06355 16.2909 2.87802 15.7953 3.21288L5.25867 9.93726L0.72255 8.49826C-0.264145 8.18602 -0.282004 7.4982 0.927925 7.01853L18.6706 0.0905301C19.4921 -0.221705 20.2109 0.276061 19.943 1.54763Z"
    ></path>
  </symbol>
  <symbol fill="none" xmlns="http://www.w3.org/2000/svg" viewBox="0 0 37 36" id="viber">
    <path
      d="M9.6186 35.0662C9.6186 33.7664 9.41036 30.5739 9.40853 29.6282C9.40782 29.2121 9.13069 29.0911 8.79819 28.9823C6.77511 28.3209 5.10844 27.1632 3.92318 25.3301C2.86411 23.6923 2.34261 21.8692 2.12024 19.9468C1.68891 16.2202 1.7223 12.502 2.60153 8.84313C3.37899 5.60706 5.28126 3.36742 8.42213 2.2087C12.1603 0.829367 16.0091 0.807992 19.8971 0.964675C21.7824 1.04063 23.6417 1.26144 25.4532 1.78493C27.3823 2.34234 29.2852 2.99263 30.6524 4.62421C31.6285 5.78906 32.2141 7.16486 32.5939 8.63083C33.4568 11.9609 33.474 15.3381 33.1743 18.7456C33.0291 20.3948 32.843 22.0233 32.2633 23.5743C31.1545 26.5408 29.0181 28.274 26.0203 29.0474C22.5848 29.9335 19.1064 30.2733 15.576 30.1384C15.0871 30.1198 14.7982 30.373 14.5014 30.7064C12.6838 32.4858 9.75426 34.9372 9.6186 35.0662Z"
      fill="#6F3FAA"></path>
    <path
      d="M10.369 35.9651C10.1663 35.9651 9.96194 35.9255 9.76878 35.8441C9.21903 35.6128 8.8635 35.0878 8.8635 34.5074C8.8635 33.859 8.80056 32.6293 8.74488 31.5444C8.71232 30.9092 8.68267 30.3297 8.66535 29.8768C6.37089 29.0825 4.5707 27.7437 3.30998 25.8923C2.19267 24.2516 1.51394 22.3417 1.23492 20.0536C0.726238 15.8795 0.89732 12.1969 1.75822 8.79525C2.68538 5.13203 5.00016 2.6283 8.63829 1.3539C11.3112 0.417641 14.1846 0 17.9554 0C18.8106 0 19.7465 0.0205763 20.9008 0.0647393C23.2182 0.153366 25.1283 0.42276 26.9123 0.912266C29.0523 1.49943 31.2808 2.23033 32.9434 4.11428C33.9901 5.30026 34.7389 6.75593 35.2324 8.5643C36.0415 11.5291 36.2433 14.7977 35.8677 18.8507C35.7162 20.4835 35.5128 22.2189 34.847 23.9104C33.5819 27.1242 31.0927 29.2063 27.449 30.0984C24.3942 30.8467 21.1993 31.226 17.9528 31.2261C17.4814 31.2261 17.0017 31.2181 16.5243 31.2023C16.5066 31.2201 16.4851 31.2422 16.4594 31.2697C16.4362 31.2945 16.4121 31.3183 16.3872 31.3415C14.8573 32.7635 12.5697 34.621 11.7087 35.3201C11.5404 35.4568 11.4251 35.5502 11.3801 35.5882C11.0975 35.8355 10.7359 35.9651 10.369 35.9651ZM17.955 2.91536C14.5495 2.91536 11.9921 3.2792 9.66271 4.09521C6.99373 5.03016 5.36493 6.79457 4.68299 9.48881C3.90929 12.546 3.75977 15.8899 4.22553 19.7117C4.44825 21.5381 4.97103 23.035 5.82416 24.2876C6.7846 25.6978 8.14827 26.6619 9.99336 27.2346C11.3696 27.6619 11.6599 28.5636 11.661 29.2449C11.6618 29.6267 11.7059 30.488 11.7526 31.3999C11.7535 31.4187 11.7546 31.4377 11.7556 31.4565C12.5999 30.75 13.5274 29.9555 14.2646 29.2724C14.5806 28.9373 15.2793 28.2412 16.4951 28.284C16.9815 28.3017 17.4719 28.3108 17.9524 28.3108C20.9499 28.3108 23.8963 27.9614 26.7098 27.2721C29.4206 26.6082 31.1118 25.2101 32.0323 22.8722C32.5619 21.527 32.7297 20.0791 32.8677 18.5901C33.2159 14.8342 33.0468 11.9718 32.3203 9.30884C31.9448 7.93327 31.3995 6.85349 30.6532 6.00787C29.5358 4.74169 27.8574 4.2018 26.0906 3.71711C24.5417 3.29205 22.8546 3.05718 20.7812 2.97779C19.6678 2.93513 18.7695 2.91536 17.955 2.91536Z"
      fill="#6F3FAA"></path>
    <path
      d="M26.1501 21.9497C26.0228 23.0861 25.3986 23.7208 24.7756 24.3268C24.0721 25.0114 23.2347 25.418 22.2332 25.0174C21.464 24.7097 20.7096 24.3589 19.9691 23.9867C17.6437 22.8186 15.6035 21.2572 13.8438 19.3507C11.7593 17.0921 10.1292 14.5458 9.17031 11.6008C8.91961 10.831 9.05096 10.1447 9.65798 9.6169C10.216 9.13161 10.8086 8.67416 11.4349 8.2825C11.8867 8 12.4343 8.02794 12.8458 8.39469C13.9919 9.41572 14.9294 10.6093 15.5372 12.0261C15.7432 12.5065 15.6978 13.0129 15.2271 13.385C14.9967 13.567 14.7796 13.7657 14.5533 13.953C13.9304 14.4683 13.8335 14.8266 14.0828 15.5888C14.6495 17.322 15.8674 18.5219 17.3374 19.4889C17.8335 19.8152 18.413 20.0267 18.9739 20.239C19.4518 20.4198 19.8502 20.2208 20.1574 19.8309C20.3177 19.6275 20.4732 19.4203 20.6375 19.2206C21.1063 18.6511 21.9297 18.4628 22.5422 18.8723C23.6179 19.5911 24.6757 20.341 25.6966 21.1344C25.9539 21.3343 26.0438 21.7485 26.1501 21.9497Z"
      fill="#EFEFF3"></path>
    <path
      d="M28.1561 16.1843C27.7728 16.1843 27.4621 15.848 27.4621
       15.4333C27.4621 10.2305 23.551 5.99793 18.744 5.99793C18.3608 5.99793 18.05 5.6616 18.05 5.24689C18.05 4.83217 18.3608 4.49585 18.744 4.49585C24.3164 4.49585 28.85 9.40243 28.85 15.4332C28.85 15.848 28.5395 16.1843 28.1561 16.1843Z"
      fill="#EFEFF3"></path>
    <path
      d="M25.3913 17.0837C24.9723 17.0837 24.6327 16.7444 24.6327 16.3259C24.6327 12.6218 21.6162 9.60803 17.9085 9.60803C17.4896 9.60803 17.1499 9.26864 17.1499 8.85016C17.1499 8.43167 17.4896 8.09229 17.9085 8.09229C22.4528 8.09229 26.1499 11.7857 26.1499 16.3258C26.1499 16.7444 25.8104 17.0837 25.3913 17.0837Z"
      fill="#EFEFF3"></path>
    <path
      d="M21.8886 17.0837C21.5233 17.0837 21.2272 16.7879 21.2272 16.423C21.2272 14.5412 19.6948 13.0102 17.8113 13.0102C17.4461 13.0102 17.1499 12.7143 17.1499 12.3495C17.1499 11.9846 17.4461 11.6887 17.8113 11.6887C20.4241 11.6887 22.5499 13.8125 22.5499 16.4229C22.5499 16.7879 22.2539 17.0837 21.8886 17.0837Z"
      fill="#EFEFF3"></path>
  </symbol>
  <symbol viewBox="0 0 116 121" xmlns="http://www.w3.org/2000/svg" id="play-button">
    <path fill-rule="evenodd" clip-rule="evenodd"
      d="M57.9895 120.579H57.9895H57.9894C32.5809 120.579 18.4464 120.579 9.23373 110.98C0 101.382 0 86.6898 0 60.2784C0 33.867 0 19.1745 9.23373 9.59819C18.4464 0 32.5599 0 57.9895 0C83.419 0 97.5325 0 106.766 9.57633C116 19.1745 116 33.8451 116 60.2784C116 86.7117 116 101.382 106.766 110.98C97.5326 120.579 83.398 120.579 57.9895 120.579ZM69.7071 61.9598C70.9698 61.1779 70.9698 59.341 69.7071 58.5591L54.1662 48.935C52.8338 48.1099 51.1132 49.0682 51.1132 50.6354V69.8835C51.1132 71.4507 52.8338 72.409 54.1662 71.5839L69.7071 61.9598Z" />
  </symbol>
  <symbol viewBox="0 0 36 36" fill="none" xmlns="http://www.w3.org/2000/svg"
    id="circled-facebook">
    <path
      d="M17.9971 1C21.9713 1 24.9547 1.00229 27.3057 1.34668C29.6225 1.6861 31.2008 2.34254 32.4277 3.56641C33.6546 4.79345 34.3122 6.37184 34.6523 8.68848C34.9975 11.0393 35 14.0226 35 17.9971C35 21.9712 34.9974 24.954 34.6523 27.3047C34.3122 29.6215 33.6548 31.2006 32.4277 32.4277C31.2008 33.6547 29.6207 34.3121 27.3027 34.6523C24.9511 34.9975 21.9681 35 17.9971 35C14.0259 35 11.0422 34.9975 8.69141 34.6523C6.37438 34.3121 4.79664 33.6539 3.57324 32.4277H3.57227C2.34533 31.2008 1.68787 29.6207 1.34766 27.3027C1.0025 24.9511 1 21.9681 1 17.9971C1 14.0259 1.0025 11.0422 1.34766 8.69141C1.68787 6.37438 2.34607 4.79664 3.57227 3.57324L3.57324 3.57227C4.79683 2.34588 6.3734 1.68782 8.68945 1.34766C11.0394 1.00255 14.0227 1 17.9971 1Z"
      stroke="white" stroke-width="2" />
    <path
      d="M15.9053 28V19.502H13V16.125H15.9053V13.4643C15.9053 10.5734 17.7083 9 20.3409 9C21.6023 9 22.6856 9.09277 23 9.13359V12.1543H21.1742C19.7424 12.1543 19.4659 12.8223 19.4659 13.7982V16.125H22.697L22.2538 19.502H19.4659V28"
      fill="white" />
  </symbol>
  <symbol viewBox="0 0 36 36" fill="none" xmlns="http://www.w3.org/2000/svg"
    id="circled-instagram">
    <path
      d="M17.9971 1C21.9713 1 24.9547 1.00229 27.3057 1.34668C29.6225 1.6861 31.2008 2.34254 32.4277 3.56641C33.6546 4.79345 34.3122 6.37184 34.6523 8.68848C34.9975 11.0393 35 14.0226 35 17.9971C35 21.9712 34.9974 24.954 34.6523 27.3047C34.3122 29.6215 33.6548 31.2006 32.4277 32.4277C31.2008 33.6547 29.6207 34.3121 27.3027 34.6523C24.9511 34.9975 21.9681 35 17.9971 35C14.0259 35 11.0422 34.9975 8.69141 34.6523C6.37438 34.3121 4.79664 33.6539 3.57324 32.4277H3.57227C2.34533 31.2008 1.68787 29.6207 1.34766 27.3027C1.0025 24.9511 1 21.9681 1 17.9971C1 14.0259 1.0025 11.0422 1.34766 8.69141C1.68787 6.37438 2.34607 4.79664 3.57227 3.57324L3.57324 3.57227C4.79683 2.34588 6.3734 1.68782 8.68945 1.34766C11.0394 1.00255 14.0227 1 17.9971 1Z"
      stroke="white" stroke-width="2" />
    <path fill-rule="evenodd" clip-rule="evenodd"
      d="M26.9933 6.23828C26.3362 6.23828 25.6914 6.50365 25.2278 6.96961C24.7605 7.43359 24.4932 8.0794 24.4932 8.73885C24.4932 9.39574 24.7616 10.0407 25.2278 10.5067C25.6905 10.9706 26.3362 11.2383 26.9933 11.2383C27.6524 11.2383 28.2949 10.9706 28.7608 10.5067C29.227 10.0407 29.4932 9.39461 29.4932 8.73885C29.4932 8.0794 29.227 7.43359 28.7608 6.96961C28.2969 6.50365 27.6524 6.23828 26.9933 6.23828Z"
      fill="white" />
    <circle cx="18" cy="18" r="7" stroke="white" stroke-width="2" />
  </symbol>
  <symbol viewBox="0 0 36 36" fill="none" xmlns="http://www.w3.org/2000/svg"
    id="circled-message">
    <path
      d="M17.9971 1C21.9713 1 24.9547 1.00229 27.3057 1.34668C29.6225 1.6861 31.2008 2.34254 32.4277 3.56641C33.6546 4.79345 34.3122 6.37184 34.6523 8.68848C34.9975 11.0393 35 14.0226 35 17.9971C35 21.9712 34.9974 24.954 34.6523 27.3047C34.3122 29.6215 33.6548 31.2006 32.4277 32.4277C31.2008 33.6547 29.6207 34.3121 27.3027 34.6523C24.9511 34.9975 21.9681 35 17.9971 35C14.0259 35 11.0422 34.9975 8.69141 34.6523C6.37438 34.3121 4.79664 33.6539 3.57324 32.4277H3.57227C2.34533 31.2008 1.68787 29.6207 1.34766 27.3027C1.0025 24.9511 1 21.9681 1 17.9971C1 14.0259 1.0025 11.0422 1.34766 8.69141C1.68787 6.37438 2.34607 4.79664 3.57227 3.57324L3.57324 3.57227C4.79683 2.34588 6.3734 1.68782 8.68945 1.34766C11.0394 1.00255 14.0227 1 17.9971 1Z"
      stroke="white" stroke-width="2" />
    <path fill-rule="evenodd" clip-rule="evenodd"
      d="M10.0007 16C10.0007 13.1716 10.0007 11.7573 10.8794 10.8787C11.7581 10 13.1723 10 16.0007 10H20.0007C22.8292 10 24.2434 10 25.1221 10.8787C26.0007 11.7573 26.0007 13.1716 26.0007 16V20C26.0007 22.8284 26.0007 24.2427 25.1221 25.1213C24.2434 26 22.8292 26 20.0007 26H16.0007L13.0007 29V25.9238C12.0256 25.828 11.3693 25.6112 10.8794 25.1213C10.0007 24.2427 10.0007 22.8284 10.0007 20V16ZM14.0012 19C14.5535 19 15.0012 18.5522 15.0012 18C15.0012 17.4478 14.5535 17 14.0012 17C13.4489 17 13.0012 17.4478 13.0012 18C13.0012 18.5522 13.4489 19 14.0012 19ZM19.0005 18C19.0005 18.5522 18.5528 19 18.0005 19C17.4482 19 17.0005 18.5522 17.0005 18C17.0005 17.4478 17.4482 17 18.0005 17C18.5528 17 19.0005 17.4478 19.0005 18ZM22.0007 19C22.553 19 23.0007 18.5522 23.0007 18C23.0007 17.4478 22.553 17 22.0007 17C21.4484 17 21.0007 17.4478 21.0007 18C21.0007 18.5522 21.4484 19 22.0007 19Z"
      fill="white" />
  </symbol>
  <symbol viewBox="0 0 36 36" fill="none" xmlns="http://www.w3.org/2000/svg"
    id="circled-telegram">
    <path
      d="M17.9971 1C21.9713 1 24.9547 1.00229 27.3057 1.34668C29.6225 1.6861 31.2008 2.34254 32.4277 3.56641C33.6546 4.79345 34.3122 6.37184 34.6523 8.68848C34.9975 11.0393 35 14.0226 35 17.9971C35 21.9712 34.9974 24.954 34.6523 27.3047C34.3122 29.6215 33.6548 31.2006 32.4277 32.4277C31.2008 33.6547 29.6207 34.3121 27.3027 34.6523C24.9511 34.9975 21.9681 35 17.9971 35C14.0259 35 11.0422 34.9975 8.69141 34.6523C6.37438 34.3121 4.79664 33.6539 3.57324 32.4277H3.57227C2.34533 31.2008 1.68787 29.6207 1.34766 27.3027C1.0025 24.9511 1 21.9681 1 17.9971C1 14.0259 1.0025 11.0422 1.34766 8.69141C1.68787 6.37438 2.34607 4.79664 3.57227 3.57324L3.57324 3.57227C4.79683 2.34588 6.3734 1.68782 8.68945 1.34766C11.0394 1.00255 14.0227 1 17.9971 1Z"
      stroke="white" stroke-width="2" />
    <path
      d="M26.943 10.5476L23.9249 24.9738C23.6972 25.992 23.1034 26.2454 22.2596 25.7657L17.6609 22.3311L15.442 24.4941C15.1964 24.743 14.9911 24.9512 14.5178 24.9512L14.8482 20.2043L23.3713 12.3984C23.7418 12.0636 23.2909 11.878 22.7953 12.2129L12.2587 18.9373L7.72255 17.4983C6.73585 17.186 6.718 16.4982 7.92793 16.0185L25.6706 9.09053C26.4921 8.77829 27.2109 9.27606 26.943 10.5476Z"
      fill="white" />
  </symbol>
  <symbol viewBox="0 0 36 36" fill="none" xmlns="http://www.w3.org/2000/svg"
    id="circled-twitter">
    <path
      d="M17.9971 1C21.9713 1 24.9547 1.00229 27.3057 1.34668C29.6225 1.6861 31.2008 2.34254 32.4277 3.56641C33.6546 4.79345 34.3122 6.37184 34.6523 8.68848C34.9975 11.0393 35 14.0226 35 17.9971C35 21.9712 34.9974 24.954 34.6523 27.3047C34.3122 29.6215 33.6548 31.2006 32.4277 32.4277C31.2008 33.6547 29.6207 34.3121 27.3027 34.6523C24.9511 34.9975 21.9681 35 17.9971 35C14.0259 35 11.0422 34.9975 8.69141 34.6523C6.37438 34.3121 4.79664 33.6539 3.57324 32.4277H3.57227C2.34533 31.2008 1.68787 29.6207 1.34766 27.3027C1.0025 24.9511 1 21.9681 1 17.9971C1 14.0259 1.0025 11.0422 1.34766 8.69141C1.68787 6.37438 2.34607 4.79664 3.57227 3.57324L3.57324 3.57227C4.79683 2.34588 6.3734 1.68782 8.68945 1.34766C11.0394 1.00255 14.0227 1 17.9971 1Z"
      stroke="white" stroke-width="2" />
    <path
      d="M25.1498 13.7383C25.1612 13.9023 25.1612 14.0664 25.1612 14.2305C25.1612 19.2344 21.4493 25 14.665 25C12.5749 25 10.6333 24.3789 9 23.3008C9.29697 23.3359 9.58247 23.3477 9.89086 23.3477C11.6155 23.3477 13.2031 22.75 14.4708 21.7305C12.849 21.6953 11.4898 20.6055 11.0216 19.1055C11.25 19.1406 11.4784 19.164 11.7183 19.164C12.0495 19.164 12.3807 19.1172 12.6891 19.0352C10.9987 18.6836 9.73094 17.1601 9.73094 15.3203V15.2734C10.222 15.5547 10.7932 15.7305 11.3984 15.7539C10.4048 15.0742 9.75379 13.914 9.75379 12.6015C9.75379 11.8984 9.9365 11.2539 10.2563 10.6914C12.0723 12.9883 14.802 14.4882 17.8629 14.6523C17.8058 14.3711 17.7716 14.0781 17.7716 13.7852C17.7716 11.6992 19.4162 10 21.4607 10C22.5228 10 23.4822 10.457 24.1561 11.1953C24.9898 11.0313 25.7893 10.7148 26.4975 10.2813C26.2233 11.1602 25.6409 11.8985 24.8756 12.3672C25.618 12.2852 26.3376 12.0742 27 11.7813C26.4975 12.5312 25.8693 13.1992 25.1498 13.7383Z"
      fill="white" />
  </symbol>
  <symbol viewBox="0 0 36 36" fill="none" xmlns="http://www.w3.org/2000/svg"
    id="circled-youtube">
    <path
      d="M17.9971 1C21.9713 1 24.9547 1.00229 27.3057 1.34668C29.6225 1.6861 31.2008 2.34254 32.4277 3.56641C33.6546 4.79345 34.3122 6.37184 34.6523 8.68848C34.9975 11.0393 35 14.0226 35 17.9971C35 21.9712 34.9974 24.954 34.6523 27.3047C34.3122 29.6215 33.6548 31.2006 32.4277 32.4277C31.2008 33.6547 29.6207 34.3121 27.3027 34.6523C24.9511 34.9975 21.9681 35 17.9971 35C14.0259 35 11.0422 34.9975 8.69141 34.6523C6.37438 34.3121 4.79664 33.6539 3.57324 32.4277H3.57227C2.34533 31.2008 1.68787 29.6207 1.34766 27.3027C1.0025 24.9511 1 21.9681 1 17.9971C1 14.0259 1.0025 11.0422 1.34766 8.69141C1.68787 6.37438 2.34607 4.79664 3.57227 3.57324L3.57324 3.57227C4.79683 2.34588 6.3734 1.68782 8.68945 1.34766C11.0394 1.00255 14.0227 1 17.9971 1Z"
      stroke="white" stroke-width="2" />
    <path fill-rule="evenodd" clip-rule="evenodd"
      d="M26.6078 10.7808C27.5501 11.0345 28.2931 11.7773 28.5468 12.7198C29.0181 14.4413 28.9999 18.0295 28.9999 18.0295C28.9999 18.0295 28.9999 21.5994 28.5469 23.321C28.2931 24.2633 27.5503 25.0063 26.6078 25.26C24.8862 25.7131 18 25.7131 18 25.7131C18 25.7131 11.1317 25.7131 9.39215 25.2419C8.44969 24.9883 7.7068 24.2451 7.45302 23.3029C7 21.5994 7 18.0114 7 18.0114C7 18.0114 7 14.4413 7.45302 12.7198C7.70663 11.7776 8.46782 11.0164 9.39198 10.7627C11.1136 10.3096 17.9998 10.3096 17.9998 10.3096C17.9998 10.3096 24.8862 10.3096 26.6078 10.7808ZM21.5337 18.0116L15.8073 21.3098V14.7134L21.5337 18.0116Z"
      fill="white" />
  </symbol>
  <symbol viewBox="0 0 38 36" fill="none" xmlns="http://www.w3.org/2000/svg"
    id="close-button">
    <path fill-rule="evenodd" clip-rule="evenodd"
      d="M18.7935 20.3509L34.8993 35.9998L37.0509 33.9093L20.9451 18.2603L37.5868 2.09068L35.4352 9.84417e-05L18.7935 16.1697L2.15162 0L0 2.09058L16.6418 18.2603L0.53588 33.9094L2.6875 35.9999L18.7935 20.3509Z"
      fill="black" />
  </symbol>
  <symbol viewBox="0 0 58 95" fill="none" xmlns="http://www.w3.org/2000/svg" id="loader-gerb">
    <path
      d="M26.0683 91.701C21.1833 87.9761 17.5805 82.4194 16.4203 75.9467H0.666016V7.86116C9.1538 12.0745 15.1991 21.4172 15.9318 31.0652L18.3133 50.178L17.1531 49.9948C14.5884 49.9948 12.3902 52.3763 12.3902 54.7577C12.3902 56.956 14.0999 58.849 16.2982 59.3375L19.1682 60.0092C23.9311 51.0329 26.6179 42.2398 26.6179 33.5688C26.6179 25.7527 25.5798 17.9977 25.4577 10.0594C25.4577 6.51778 26.8011 3.28142 28.9994 0.777832C31.1976 3.34249 32.541 6.51778 32.541 10.0594C32.541 17.9977 31.3808 25.8138 31.3808 33.5688C31.3808 42.1787 34.0676 51.0329 38.8305 60.0092L41.7005 59.3375C43.8988 58.849 45.6086 56.956 45.6086 54.7577C45.6086 52.3763 43.4103 49.9948 40.8456 49.9948L39.6854 50.178L42.0669 31.0652C43.2271 21.4172 48.8449 12.0745 57.3327 7.86116V75.9467H41.5784C40.4182 82.3583 36.9986 88.1593 31.9304 91.701C30.7702 92.5558 29.7321 93.5939 29.0604 94.9373C28.2666 93.5329 27.2285 92.5558 26.0683 91.701ZM8.11573 52.4373C8.78742 49.8727 10.6804 47.6744 13.0008 46.331L11.1078 30.5767C10.4361 25.6916 8.42104 21.2951 5.36788 17.6923V52.3763H8.11573V52.4373ZM16.115 71.1837C16.115 68.8023 16.4814 66.604 16.9699 64.4057L14.7716 63.9172C11.5353 62.8791 9.03168 60.3755 8.1768 57.1392H5.49001V71.1837H16.115ZM26.5568 71.1837C26.5568 68.3138 24.3586 65.7491 21.4886 65.4438C21.0001 67.2757 20.6337 69.1686 20.6337 71.1837H26.5568ZM26.5568 75.9467H21.3054C22.1603 79.6715 23.9922 83.03 26.5568 85.961V75.9467ZM34.0065 61.2304C31.9915 57.5056 30.0985 53.5975 28.9383 49.5673C27.7781 53.6586 25.8851 57.5056 23.87 61.2304C25.8851 61.7189 27.5949 63.0623 28.9383 64.5889C30.2817 63.0623 31.9915 61.7189 34.0065 61.2304ZM37.2429 71.1837C37.2429 69.1686 36.8765 67.2757 36.388 65.4438C33.518 65.8102 31.3198 68.3138 31.3198 71.1837H37.2429ZM36.5712 75.9467H31.3198V85.961C33.8844 83.03 35.7163 79.6715 36.5712 75.9467ZM52.5087 71.1837V57.1392H49.8219C48.967 60.3755 46.4634 62.8791 43.2271 63.9172L41.0288 64.4057C41.5173 66.604 41.8837 68.8023 41.8837 71.1837H52.5087ZM52.5087 52.4373V17.7534C49.4555 21.2951 47.2573 25.6916 46.7688 30.6377L44.8758 46.3921C47.2573 47.7355 49.0892 49.9337 49.7608 52.4984H52.5087V52.4373Z"
      fill="black"></path>
  </symbol>
</svg>